<svg width="834" height="354" viewBox="0 0 834 354" fill="none" xmlns="http://www.w3.org/2000/svg">
<path d="M36.6016 37.125V283.933H283.409V37.125H36.6016ZM160.006 263.288C103.254 263.288 57.2469 217.28 57.2469 160.529C57.2469 103.778 103.254 57.7821 160.006 57.7821C216.757 57.7821 262.764 103.789 262.764 160.541C262.764 217.292 216.757 263.299 160.006 263.299V263.288Z" fill="black"/>
<path fill-rule="evenodd" clip-rule="evenodd" d="M410.66 253.045C410.66 274.411 393.114 283.75 366.654 283.75H308.641V279.647C321.092 279.647 324.347 275.685 324.347 267.053V187.249C324.347 178.618 321.092 174.656 308.641 174.656V170.553H367.928C392.407 170.553 405.849 179.892 405.849 198.569C405.849 214.558 394.954 223.331 380.096 225.029V226.161C399.906 227.151 410.66 237.905 410.66 253.045ZM356.325 179.043C354.486 179.609 353.92 180.74 353.92 182.438V221.35C356.466 221.916 359.013 222.058 360.711 222.058C371.324 222.058 377.266 214.7 377.266 200.126C377.266 185.41 371.041 178.477 361.419 178.477C359.862 178.477 357.74 178.618 356.325 179.043ZM360.994 229.698C358.872 229.698 356.466 229.84 353.92 230.406V271.864C353.92 274.553 357.032 275.826 362.268 275.826C372.739 275.826 381.511 270.874 381.511 253.045C381.511 235.075 372.314 229.698 360.994 229.698Z" fill="black"/>
<path fill-rule="evenodd" clip-rule="evenodd" d="M492.151 242.846C492.151 267.325 477.718 284.022 453.947 284.022C430.034 284.022 415.743 269.023 415.743 243.837C415.743 219.358 430.034 202.803 453.947 202.803C477.718 202.803 492.151 217.801 492.151 242.846ZM442.061 230.96C442.061 250.204 446.306 275.107 456.635 275.107C463.71 275.107 465.833 264.495 465.833 255.864C465.833 236.62 461.588 211.717 451.258 211.717C444.184 211.717 442.061 222.329 442.061 230.96Z" fill="black"/>
<path d="M553.138 260.109C553.138 276.805 540.686 284.022 526.82 284.022C517.623 284.022 511.821 280.909 508.284 278.503C506.444 277.23 505.171 277.513 504.322 279.352L502.907 282.324H498.945L497.53 249.921H501.633C504.039 264.92 512.529 275.815 523.848 275.815C529.508 275.815 532.621 272.843 532.621 267.183C532.621 262.373 530.216 260.392 516.632 251.194C503.19 242.139 498.662 235.488 498.662 226.432C498.662 211.292 510.265 202.803 523.848 202.803C530.923 202.803 536.159 205.632 539.271 208.038C541.252 209.453 542.667 209.028 543.516 207.189L544.931 203.793H548.893L550.167 230.394H546.205C543.516 219.641 535.593 210.868 526.254 210.868C521.443 210.868 518.896 213.839 518.896 217.66C518.896 222.471 521.726 224.451 532.763 232.092C545.78 241.007 553.138 247.232 553.138 260.109Z" fill="black"/>
<path fill-rule="evenodd" clip-rule="evenodd" d="M591.692 202.803C600.041 202.803 607.115 204.5 616.454 210.726L627.973 202.272L631.453 204.925V296.19C631.453 306.095 633.434 308.784 642.773 308.784V312.887H593.39V308.784C603.578 308.784 605.842 306.095 605.842 296.19V268.032H605.276C600.748 277.371 594.098 283.597 583.769 283.597C570.326 283.597 558.441 272.985 558.441 246.242C558.441 220.631 568.911 202.803 591.692 202.803ZM595.513 268.598C598.909 268.598 602.588 266.334 605.842 260.109V231.668C605.701 216.952 600.465 213.698 596.362 213.698C587.872 213.698 585.184 226.715 585.184 242.422C585.184 260.25 588.862 268.598 595.513 268.598Z" fill="black"/>
<path d="M728.157 273.551L696.886 284.163L691.792 280.343V266.617H691.367C685.708 275.532 679.906 284.022 667.03 284.022C656.135 284.022 647.645 275.815 647.645 260.816C647.645 228.338 647.647 249.921 647.647 219.727C647.647 212.856 646.327 210.519 637.609 210.519L638.574 206.532L669.534 202.325L672.989 204.955L672.973 258.552C672.973 266.193 674.812 269.306 679.34 269.306C684.01 269.306 687.83 264.778 691.792 258.694C691.792 245.705 691.819 232.716 691.819 219.727C691.819 212.856 690.508 210.519 681.848 210.519L682.806 206.532L713.654 202.325L717.085 204.955L717.12 258.977C717.12 269.73 717.686 272.419 726.742 269.306L728.157 273.551Z" fill="black"/>
<path fill-rule="evenodd" clip-rule="evenodd" d="M773.759 267.183C779.843 267.183 787.201 263.08 790.739 250.628H794.842C790.739 273.975 780.126 284.022 762.864 284.022C744.045 284.022 730.744 270.579 730.744 245.11C730.744 223.178 742.913 202.803 763.996 202.803C786.352 202.803 794.276 220.773 794.276 240.724H755.789C756.496 258.269 762.015 267.183 773.759 267.183ZM770.08 232.8C770.08 217.943 769.656 210.868 763.571 210.868C756.921 210.868 755.789 217.518 755.647 232.8H770.08Z" fill="black"/>
<path d="M308.543 150.173H371.567V146.075C358.002 146.075 354.469 142.119 354.469 133.499V104.53C357.295 105.943 361.958 107.356 369.024 107.215C389.514 106.65 408.025 97.1819 408.025 70.4742C408.025 47.2993 393.894 37.125 361.534 37.125H308.543V41.223C320.978 41.223 324.228 45.1797 324.228 53.7996V133.499C324.228 142.119 320.978 146.075 308.543 146.075V150.173ZM362.806 97.8885C358.991 97.8885 355.741 96.6167 354.469 95.7688V50.1256C354.469 48.5711 355.034 47.2993 356.447 46.5928C358.426 45.6036 360.969 45.0384 363.795 45.0384C374.111 45.0384 378.633 54.0822 378.633 69.909C378.633 85.3118 374.535 97.8885 362.806 97.8885Z" fill="black"/>
<path d="M442.647 152.434C466.387 152.434 480.801 135.76 480.801 111.313C480.801 86.301 466.387 71.3221 442.647 71.3221C418.765 71.3221 404.493 87.8554 404.493 112.302C404.493 137.455 418.765 152.434 442.647 152.434ZM445.332 143.532C435.016 143.532 430.777 118.661 430.777 99.4429C430.777 90.8229 432.896 80.2246 439.962 80.2246C450.278 80.2246 454.517 105.095 454.517 124.313C454.517 132.933 452.397 143.532 445.332 143.532Z" fill="black"/>
<path d="M541.87 71.3221C532.402 71.3221 523.782 82.4856 519.825 89.4098H519.402V73.7244L515.162 70.4742L483.367 83.4748L485.063 87.5728C493.683 84.04 493.966 86.5836 493.966 97.3232V133.499C493.966 143.249 492.129 146.075 483.65 146.075V150.173H536.359V145.51C522.51 145.51 519.402 142.401 519.402 131.238V101.563C520.673 94.7796 524.347 89.4098 527.88 89.4098C529.576 89.4098 530.565 89.9751 533.25 92.9426C536.076 95.9101 537.631 97.3232 541.305 97.3232C547.522 97.3232 551.762 91.1055 551.762 82.7682C551.762 75.4201 548.511 71.3221 541.87 71.3221Z" fill="black"/>
<path d="M603.959 115.411C603.959 130.39 601.415 138.162 595.904 138.162C591.382 138.162 588.98 132.651 588.98 122.335V82.0617H604.948V74.1483H588.415V52.2452H580.219C576.969 67.5067 565.24 73.8657 554.5 74.5722V82.0617H563.685V123.466C563.685 145.086 571.74 152.434 585.447 152.434C602.828 152.434 609.329 140.423 609.329 115.411H603.959Z" fill="black"/>
<path d="M686.279 132.369C685.714 139.999 683.453 142.825 680.627 142.825C678.366 142.825 677.8 141.13 677.8 136.043V97.7475C677.8 81.7794 667.909 71.1811 648.125 71.1811C628.907 71.1811 616.33 81.6381 616.33 93.2255C616.33 99.7258 620.428 104.106 627.918 104.106C635.266 104.106 639.081 99.8671 639.081 94.356C639.081 90.5406 637.244 87.5731 637.244 84.6056C637.244 81.0728 639.788 78.5293 644.169 78.5293C649.821 78.5293 652.647 82.4859 652.647 94.4973V102.693C635.407 109.476 612.091 116.683 612.091 135.053C612.091 144.945 618.874 152.435 630.32 152.435C642.897 152.435 650.528 143.532 652.223 132.934H652.788C654.06 147.489 660.843 152.293 671.159 152.293C683.877 152.293 689.105 145.369 690.377 132.369H686.279ZM642.049 134.629C638.94 134.629 636.396 132.651 636.396 127.705C636.396 119.509 643.745 112.868 652.647 108.487V125.02C650.528 131.238 646.147 134.629 642.049 134.629Z" fill="black"/>
<path d="M730.025 39.9267L726.539 37.2539L695.196 41.5287L694.222 45.5795C703.021 45.5795 704.353 47.9545 704.353 54.9353C704.353 68.8188 704.352 81.4541 704.352 94.0894C704.351 106.725 704.35 119.36 704.35 133.244C704.35 143.077 702.212 145.927 692.949 145.927V150.06H741.402V145.927C731.997 145.927 730.002 143.077 730.002 133.244L730.025 39.9267Z" fill="black"/>
</svg>
